<?xml version="1.0" standalone="no"?>
<!DOCTYPE svg PUBLIC "-//W3C//DTD SVG 20010904//EN"
 "http://www.w3.org/TR/2001/REC-SVG-20010904/DTD/svg10.dtd">
<svg version="1.0" xmlns="http://www.w3.org/2000/svg"
 width="500.000000pt" height="500.000000pt" viewBox="0 0 500.000000 500.000000"
 preserveAspectRatio="xMidYMid meet">
<metadata>
Created by potrace 1.14, written by Peter Selinger 2001-2017
</metadata>
<g transform="translate(0.000000,500.000000) scale(0.100000,-0.100000)"
fill="#000000" stroke="none">
<path d="M502 4980 c-117 -31 -205 -83 -302 -180 -98 -98 -149 -185 -180 -306
-20 -76 -20 -115 -20 -1989 0 -1870 0 -1913 20 -1989 48 -190 174 -346 351
-436 161 -82 -33 -75 2124 -75 l1920 0 82 23 c210 61 393 233 463 437 11 33
25 103 31 155 6 62 9 742 7 1955 -4 2084 4 1887 -79 2055 -34 68 -59 102 -128
170 -98 98 -185 149 -307 180 -76 20 -118 20 -1993 19 -1857 0 -1918 -1 -1989
-19z m3971 -157 c98 -38 154 -73 217 -139 67 -70 123 -175 140 -263 15 -78 14
-3772 -1 -3843 -41 -201 -220 -374 -419 -408 -46 -8 -621 -10 -1955 -8 l-1890
3 -59 23 c-178 67 -317 233 -346 412 -14 92 -14 3735 1 3816 38 213 223 391
438 423 31 5 902 8 1936 7 l1880 -1 58 -22z"/>
<path d="M3240 4797 c-132 -69 -299 -184 -549 -380 -146 -114 -155 -119 -168
-101 -8 10 -27 38 -43 62 -17 23 -37 42 -46 42 -12 0 -10 -9 11 -42 14 -24 33
-57 42 -75 16 -31 16 -32 -18 -60 -18 -15 -74 -65 -124 -111 -112 -103 -150
-126 -245 -145 -160 -33 -384 -117 -580 -218 -109 -56 -240 -159 -240 -189 0
-27 12 -25 47 5 41 36 234 158 323 204 91 47 341 129 503 165 65 15 167 30
228 35 60 4 112 10 115 14 3 3 -1 16 -10 29 -9 12 -16 35 -16 50 0 39 40 140
53 136 28 -9 120 -246 151 -388 9 -41 22 -120 29 -174 8 -68 16 -101 26 -104
12 -4 13 11 8 87 -13 180 -67 383 -143 534 -19 37 -32 71 -30 76 3 4 54 43
113 87 315 230 613 456 613 464 0 14 -20 12 -50 -3z m-840 -687 c0 -5 -5 -10
-11 -10 -5 0 -7 5 -4 10 3 6 8 10 11 10 2 0 4 -4 4 -10z"/>
<path d="M3346 4802 c-3 -5 3 -76 14 -158 27 -204 70 -626 77 -759 5 -88 3
-112 -8 -121 -8 -6 -48 -23 -89 -39 -146 -55 -340 -166 -340 -195 0 -18 19
-11 69 25 53 39 198 109 305 149 l69 26 -5 -155 c-3 -85 -1 -155 3 -155 21 0
31 52 37 183 l7 142 84 27 c46 16 156 43 244 61 92 18 162 38 165 45 9 27
-158 -2 -366 -64 -67 -20 -124 -35 -126 -33 -2 2 -9 117 -15 254 -14 302 -27
461 -46 577 -24 141 -58 223 -79 190z"/>
<path d="M4179 4744 c-20 -22 -24 -36 -24 -91 0 -60 2 -67 33 -94 37 -33 72
-37 95 -11 24 27 21 33 -15 27 -37 -6 -50 1 -67 32 -17 32 -13 78 8 104 17 21
21 22 46 11 38 -17 56 0 30 28 -26 29 -76 26 -106 -6z"/>
<path d="M4138 4438 c-2 -41 4 -193 9 -201 11 -18 33 18 33 54 l0 39 46 0 47
0 -6 -36 c-7 -43 8 -81 27 -65 7 6 13 48 14 115 3 101 2 106 -17 106 -17 0
-21 -6 -21 -35 0 -31 -3 -35 -34 -41 -46 -8 -56 0 -56 47 0 32 -3 39 -20 39
-14 0 -21 -7 -22 -22z"/>
<path d="M4160 4171 c-22 -4 -35 -12 -35 -21 0 -12 14 -15 66 -16 82 -1 99 -7
99 -38 0 -28 -16 -36 -71 -36 -37 0 -39 2 -39 30 0 43 -35 42 -44 -1 -11 -54
-7 -126 7 -138 19 -15 27 -4 27 37 l0 35 23 -21 c23 -22 117 -66 124 -58 9 9
-18 46 -45 60 -26 14 -26 15 -4 16 35 0 62 34 62 79 0 70 -54 93 -170 72z"/>
<path d="M3335 4108 c-35 -19 -76 -59 -210 -203 -202 -216 -315 -354 -315
-384 0 -24 27 -8 55 32 54 77 178 219 339 390 87 92 157 170 155 172 -3 2 -13
-1 -24 -7z"/>
<path d="M1108 3858 c-3 -7 -1 -71 5 -142 7 -95 7 -130 -2 -135 -16 -11 -635
-52 -768 -51 -106 0 -113 -1 -113 -20 0 -19 7 -20 138 -20 182 0 453 17 577
36 55 8 121 18 147 21 l46 6 12 -59 c29 -142 95 -309 126 -321 26 -10 24 2
-11 73 -19 38 -45 112 -59 164 -41 160 -41 147 -1 154 46 9 45 24 -2 28 l-38
3 -17 130 c-9 72 -17 133 -17 138 -1 12 -18 8 -23 -5z"/>
<path d="M4204 3760 c1 -60 4 -112 8 -115 14 -15 32 33 36 100 6 91 -2 125
-27 125 -18 0 -19 -8 -17 -110z"/>
<path d="M4150 3530 c-40 -40 -13 -81 70 -108 79 -27 73 -46 -17 -53 -40 -3
-76 -9 -80 -13 -15 -15 24 -26 90 -26 59 0 71 3 92 25 30 29 31 35 4 69 -13
16 -41 32 -75 42 -35 10 -54 21 -54 31 0 13 9 15 50 11 43 -4 50 -3 50 12 0
36 -97 43 -130 10z"/>
<path d="M230 3413 c0 -18 42 -67 163 -190 160 -163 287 -274 400 -348 31 -21
57 -41 57 -45 0 -3 -18 -16 -39 -28 -75 -42 -146 -102 -213 -179 -38 -43 -68
-84 -68 -92 0 -7 48 33 108 90 108 105 220 189 251 189 9 0 71 -24 136 -54 66
-29 128 -56 138 -59 27 -10 21 -29 -31 -98 -155 -205 -267 -394 -260 -441 2
-17 18 6 65 90 68 123 244 374 255 364 3 -4 11 -55 17 -113 13 -135 53 -319
92 -429 48 -134 49 -125 -12 -155 -65 -33 -116 -66 -194 -124 -130 -97 -250
-231 -207 -231 5 0 34 29 65 64 32 36 96 94 143 129 90 68 241 157 265 157 8
0 22 -12 32 -25 l17 -24 -83 -83 c-86 -85 -213 -246 -268 -340 -36 -60 -84
-177 -93 -225 -10 -57 19 -38 38 24 26 81 64 154 145 274 76 115 253 309 280
309 38 0 80 -77 52 -95 -20 -12 -72 -167 -69 -204 3 -36 4 -36 15 -11 7 14 26
61 43 106 16 44 36 89 44 99 13 18 15 17 52 -12 72 -57 186 -107 314 -140 l35
-9 -60 -27 c-105 -49 -335 -212 -335 -238 0 -27 36 -15 108 34 77 53 200 108
272 121 l35 7 -29 -26 c-32 -29 -32 -29 13 -48 29 -12 41 -12 89 0 74 19 116
42 242 128 58 40 161 104 230 142 181 102 761 387 925 454 86 35 141 64 143
73 2 9 7 16 12 16 5 0 17 3 27 6 15 5 15 4 3 -5 -11 -8 1 -11 51 -11 85 0 101
-12 106 -81 4 -51 2 -57 -40 -114 -24 -33 -90 -109 -146 -168 -56 -60 -147
-159 -202 -220 -62 -68 -107 -111 -117 -109 -19 4 -182 -156 -466 -458 -233
-248 -393 -426 -407 -452 -25 -47 27 -4 199 161 103 98 217 205 254 236 37 31
102 96 144 143 122 138 382 418 469 507 81 83 191 165 220 165 27 0 29 -30 5
-79 -35 -72 -144 -251 -207 -337 -76 -106 -123 -184 -123 -206 0 -27 18 -22
34 11 9 16 22 31 31 34 8 4 30 30 49 59 18 29 76 90 127 135 52 44 107 95 123
112 17 17 34 31 39 31 5 0 40 -18 78 -40 45 -27 75 -52 85 -73 9 -18 34 -54
55 -81 44 -55 48 -85 23 -159 -12 -37 -22 -48 -42 -53 -15 -3 -62 -14 -104
-25 -49 -12 -112 -19 -173 -19 l-95 0 6 25 c11 45 -24 30 -120 -50 -26 -22
-71 -71 -100 -110 -29 -38 -111 -135 -182 -215 -71 -80 -166 -188 -210 -240
-83 -96 -188 -201 -279 -277 l-50 -42 45 -1 45 0 215 218 c118 120 244 255
280 301 77 98 181 171 388 275 204 102 286 118 345 66 29 -25 38 -44 56 -115
11 -46 21 -86 21 -89 0 -2 -17 5 -37 15 -45 23 -65 24 -102 4 -34 -17 -41 -33
-41 -87 0 -34 7 -47 39 -79 32 -32 45 -39 79 -39 32 0 47 7 73 32 l32 32 -7
-39 c-3 -22 -9 -59 -12 -82 -9 -60 3 -111 34 -142 22 -21 32 -48 52 -146 22
-108 27 -120 47 -123 13 -2 23 -1 23 1 0 3 -8 47 -19 98 -34 173 -35 156 6
170 29 9 45 8 93 -6 45 -14 62 -15 79 -6 49 27 68 99 47 179 -15 60 -7 72 30
43 71 -56 184 16 184 117 0 18 -11 43 -26 61 l-25 31 28 37 c15 21 58 76 96
122 l67 85 0 80 0 80 -72 -70 c-40 -39 -115 -106 -167 -150 -84 -71 -94 -77
-106 -61 -7 9 -26 22 -43 28 -64 22 -124 -36 -132 -128 -4 -44 -10 -59 -28
-71 -22 -15 -22 -14 -12 12 24 63 4 153 -39 176 -33 17 -89 12 -111 -10 -42
-42 -42 -8 0 45 57 71 51 146 -22 270 -23 39 -67 104 -99 146 -32 41 -81 123
-108 180 -28 58 -57 111 -65 119 -11 8 -16 29 -16 61 0 35 -5 54 -20 69 -19
19 -19 20 0 30 10 5 34 10 52 10 18 0 68 7 111 15 43 8 116 15 162 15 l83 0 7
-67 c8 -78 10 -84 30 -76 11 3 15 21 15 57 l0 51 25 -53 c21 -46 65 -85 80
-71 2 3 10 40 16 82 l11 77 92 0 c86 0 211 -11 311 -26 38 -5 45 -4 45 10 0
12 -10 16 -40 16 -22 0 -40 5 -40 10 0 6 15 8 40 4 33 -5 40 -4 40 10 0 14
-16 16 -120 16 l-120 0 17 27 c35 54 13 378 -38 564 -30 110 -109 264 -175
343 -56 66 -58 68 -96 63 -24 -3 -56 -19 -86 -43 -104 -84 -218 -192 -284
-271 -75 -90 -108 -113 -163 -113 l-36 0 3 102 3 102 40 15 c75 27 300 112
324 122 19 8 22 12 11 19 -17 10 -70 -6 -243 -74 -91 -36 -140 -50 -142 -43
-3 7 -13 57 -24 112 -34 166 -78 281 -135 350 -19 24 -27 27 -37 18 -10 -10
-5 -32 24 -105 38 -96 117 -360 117 -390 0 -12 -26 -31 -82 -59 -101 -50 -214
-125 -222 -146 -8 -21 1 -30 19 -18 131 94 280 179 296 169 5 -3 9 -45 9 -94
l0 -89 -32 -5 c-198 -32 -258 -48 -258 -67 0 -13 3 -12 167 21 62 13 115 21
118 18 6 -6 -24 -128 -35 -141 -4 -4 -35 -1 -71 8 -71 16 -175 20 -183 6 -8
-13 19 -21 73 -21 57 0 161 -20 161 -30 0 -4 -30 -32 -67 -62 -184 -149 -245
-188 -474 -303 -240 -121 -353 -185 -596 -337 -141 -88 -141 -88 -185 -79 -23
6 -90 14 -148 19 -168 15 -313 55 -417 114 -113 64 -122 72 -105 99 18 28 9
34 -20 15 -23 -15 -26 -15 -48 9 l-23 25 44 39 c36 33 40 40 23 41 -11 0 -35
-11 -54 -25 -36 -26 -60 -20 -60 16 0 13 13 20 57 29 46 10 53 14 39 22 -17
10 -60 7 -102 -7 -18 -6 -24 1 -42 42 -34 80 -60 188 -93 382 -16 101 -37 201
-46 223 -19 47 -14 61 51 136 25 30 46 58 46 63 0 20 -21 6 -72 -46 -29 -30
-59 -55 -66 -55 -21 0 -161 63 -212 95 l-45 28 65 25 c48 18 94 26 179 31 78
4 116 10 119 19 3 9 -21 12 -95 12 -101 0 -182 -15 -260 -50 l-42 -19 -118 76
c-175 111 -222 151 -445 380 -99 101 -118 117 -118 96z m4025 -443 c3 -5 -3
-10 -15 -10 -12 0 -18 5 -15 10 3 6 10 10 15 10 5 0 12 -4 15 -10z m31 -62
c40 0 146 -186 179 -313 20 -80 36 -223 34 -310 -1 -38 2 -81 6 -95 4 -14 4
-22 0 -18 -5 4 -13 4 -19 -2 -7 -5 -18 -5 -25 -1 -10 7 -9 10 8 16 21 6 30 35
11 35 -6 0 -27 -11 -48 -24 -81 -51 -124 -69 -133 -54 -5 7 -26 13 -51 13 -41
0 -43 1 -43 30 0 27 3 30 32 30 18 0 33 3 33 8 0 4 0 11 0 17 0 5 -16 12 -35
16 -25 4 -35 11 -35 25 0 16 8 19 50 19 43 0 50 3 50 20 0 18 -7 20 -65 20
-62 0 -66 -1 -76 -27 -7 -17 -8 -54 -4 -93 8 -82 33 -114 84 -106 45 7 36 0
-39 -29 -45 -18 -67 -22 -81 -15 -10 6 -51 10 -92 10 -41 0 -99 5 -128 12 -30
6 -66 11 -81 12 -21 1 -28 8 -38 38 -13 46 -34 58 -97 58 -29 0 -43 4 -35 8 7
5 10 15 7 23 -7 20 22 89 38 89 6 0 57 -20 111 -45 91 -41 125 -48 110 -24 -8
13 -99 58 -159 79 -63 22 -63 34 -1 128 70 103 89 122 128 122 39 0 66 14 48
25 -6 4 -22 4 -36 1 -13 -4 -24 -2 -24 3 0 10 269 291 278 291 4 0 7 -27 7
-61 0 -56 3 -63 33 -90 36 -33 67 -37 94 -12 27 24 22 34 -14 28 -37 -6 -50 1
-67 32 -27 52 1 131 43 118 11 -4 30 -7 42 -7z m-580 -443 c-47 -86 -67 -108
-80 -87 -2 4 2 32 9 62 8 30 17 67 20 82 5 26 17 32 81 37 20 1 17 -8 -30 -94z
m-72 -123 c8 -13 -14 -85 -32 -104 -16 -19 -52 -25 -52 -9 0 5 7 14 15 21 8 7
15 16 15 20 0 4 7 24 15 44 15 35 28 45 39 28z m799 -195 c-5 -24 -33 -34 -33
-11 0 10 21 30 36 34 1 0 -1 -10 -3 -23z m-116 -69 c-3 -8 -6 -5 -6 6 -1 11 2
17 5 13 3 -3 4 -12 1 -19z m-418 -43 c43 -22 30 -35 -33 -35 -64 0 -87 15 -79
52 5 26 6 26 43 13 21 -7 52 -21 69 -30z m360 18 c-7 -10 -15 -20 -16 -22 -2
-2 -3 5 -3 17 0 14 6 22 16 22 14 0 15 -3 3 -17z m-1174 -68 c-60 -30 -114
-54 -120 -54 -5 1 40 25 100 54 61 30 115 54 120 54 6 -1 -39 -25 -100 -54z
m1177 -62 c-2 -27 -6 -50 -8 -52 -4 -5 -34 69 -34 85 0 8 10 14 24 14 22 0 23
-3 18 -47z m-2122 -383 c0 -5 -5 -10 -11 -10 -5 0 -7 5 -4 10 3 6 8 10 11 10
2 0 4 -4 4 -10z m2560 -380 c0 -5 -4 -10 -10 -10 -5 0 -10 -8 -11 -17 0 -11
-2 -13 -6 -5 -3 7 -2 19 1 27 6 17 26 20 26 5z m-60 -50 c0 -5 -5 -10 -11 -10
-5 0 -7 5 -4 10 3 6 8 10 11 10 2 0 4 -4 4 -10z m-50 -44 c0 -8 -9 -18 -20
-21 -11 -3 -20 -13 -20 -21 0 -8 -5 -12 -11 -8 -7 4 0 17 17 35 32 33 34 34
34 15z m-143 -128 c-3 -7 -5 -2 -5 12 0 14 2 19 5 13 2 -7 2 -19 0 -25z m10
-75 c-3 -10 -5 -4 -5 12 0 17 2 24 5 18 2 -7 2 -21 0 -30z m-187 -75 c0 -23
-3 -29 -9 -19 -6 9 -11 10 -15 3 -8 -13 -36 -4 -36 10 0 13 31 37 48 38 7 0
12 -13 12 -32z"/>
<path d="M4138 2618 c-2 -41 4 -193 9 -201 11 -18 33 18 33 54 l0 39 46 0 47
0 -6 -36 c-7 -43 8 -81 27 -65 7 6 13 48 14 115 3 101 2 106 -17 106 -17 0
-21 -6 -21 -35 0 -31 -3 -35 -34 -41 -46 -8 -56 0 -56 47 0 32 -3 39 -20 39
-14 0 -21 -7 -22 -22z"/>
<path d="M2764 2831 c-17 -10 -36 -33 -44 -50 -14 -34 -39 -40 -85 -19 -14 6
-28 8 -31 5 -12 -12 18 -37 57 -49 l39 -11 0 -62 c0 -159 80 -265 200 -265
135 0 160 248 41 399 -53 67 -120 87 -177 52z"/>
<path d="M1622 2477 c-12 -13 -22 -30 -22 -39 0 -36 -30 -43 -97 -23 -17 5
-23 3 -23 -7 0 -17 41 -38 75 -38 27 0 30 -7 40 -104 7 -76 48 -162 85 -181
56 -29 128 -13 149 32 28 61 5 188 -52 296 -45 85 -110 112 -155 64z"/>
<path d="M2229 2121 c-42 -13 -69 -31 -69 -46 0 -8 14 -30 31 -50 46 -52 75
-46 112 23 16 29 26 59 23 67 -6 16 -53 19 -97 6z"/>
<path d="M4171 1714 c-36 -26 -54 -78 -41 -120 14 -43 77 -81 140 -86 l45 -3
3 57 c3 51 1 59 -22 73 -32 21 -61 16 -61 -10 0 -13 8 -21 23 -23 17 -3 22
-10 22 -32 0 -27 -1 -28 -31 -20 -57 17 -79 37 -79 75 0 42 29 65 81 65 30 0
37 4 35 18 -4 24 -82 29 -115 6z"/>
<path d="M1560 1213 c0 -16 9 -46 19 -68 31 -66 153 -227 198 -261 34 -26 38
-33 24 -37 -24 -6 -41 -117 -41 -265 -1 -59 -8 -143 -16 -187 -9 -44 -18 -108
-21 -143 -5 -53 -3 -62 11 -62 10 0 16 9 16 25 0 42 21 125 31 119 20 -12 31
60 36 250 6 198 6 199 25 176 11 -13 22 -37 25 -53 5 -25 18 -35 89 -69 114
-55 119 -53 263 113 63 72 146 165 186 207 101 109 135 158 135 199 0 47 -13
40 -85 -46 -60 -73 -313 -290 -392 -337 l-42 -25 -52 18 c-32 11 -55 26 -62
40 -5 12 -53 66 -106 120 -72 73 -112 125 -159 206 -35 59 -68 107 -73 107 -5
0 -9 -12 -9 -27z"/>
<path d="M1178 570 c-85 -25 -182 -137 -244 -278 -40 -92 -41 -102 -9 -102 14
0 25 5 25 12 0 6 18 48 39 93 49 100 165 219 226 231 48 9 111 -11 130 -40 45
-68 37 -127 -29 -227 l-46 -69 29 0 c27 0 34 8 71 78 68 126 64 191 -14 260
-52 45 -117 61 -178 42z"/>
<path d="M3827 213 c-12 -11 -8 -23 8 -23 8 0 15 7 15 15 0 16 -12 20 -23 8z"/>
</g>
</svg>
